 http://bayimg.com/oaIeLAaeB

 
http://www.imdb.com/title/tt0903624/


The Hobbit: An Unexpected Journey

Plot:A younger and more reluctant Hobbit, Bilbo Baggins, sets out on a "unexpected journey" to the Lonely Mountain with a spirited group of Dwarves to reclaim a their stolen mountain home from a dragon named Smaug.
 

Director: 
Peter Jackson

 Writers: 
Fran Walsh (screenplay), Philippa Boyens (screenplay)

Stars:
 Martin Freeman, Ian McKellen and Richard Armitage

Genres:
 Adventure | Fantasy 


Country:
USA |New Zealand 

Language:
English 

Thanks : CM8



Format                                   : MPEG-4
Format profile                           : Base Media
Codec ID                                 : isom
File size                                : 687 MiB
Duration                                 : 2h 49mn
Overall bit rate                         : 566 Kbps
Encoded date                             : UTC 2013-01-02 14:35:01
Tagged date                              : UTC 2013-01-02 14:35:01
Writing application                      : Lavf54.32.100

Video
ID                                       : 1
Format                                   : AVC
Format/Info                              : Advanced Video Codec
Format profile                           : Main@L4.1
Format settings, CABAC                   : Yes
Format settings, ReFrames                : 2 frames
Codec ID                                 : avc1
Codec ID/Info                            : Advanced Video Coding
Duration                                 : 2h 49mn
Source duration                          : 4mn 54s
Bit rate                                 : 500 Kbps
Width                                    : 640 pixels
Height                                   : 256 pixels
Display aspect ratio                     : 2.35:1
Frame rate mode                          : Constant
Frame rate                               : 29.534 fps
Color space                              : YUV
Chroma subsampling                       : 4:2:0
Bit depth                                : 8 bits
Scan type                                : Progressive
Bits/(Pixel*Frame)                       : 0.103
Stream size                              : 606 MiB (88%)
Source stream size                       : 606 MiB (88%)
Writing library                          : x264 core 128 r2216

Audio
ID                                       : 2
Format                                   : AAC
Format/Info                              : Advanced Audio Codec
Format profile                           : LC
Codec ID                                 : 40
Duration                                 : 2h 49mn
Duration_LastFrame                       : -14ms
Bit rate mode                            : Constant
Bit rate                                 : 58.9 Kbps
Channel(s)                               : 2 channels
Channel positions                        : Front: L R
Sampling rate                            : 44.1 KHz
Compression mode                         : Lossy
Delay relative to video                  : -5mn 38s
Stream size                              : 71.5 MiB (10%)
Encoded date                             : UTC 2013-01-02 14:35:01
Tagged date                              : UTC 2013-01-02 14:35:01

 
http://www.shotpix.com/images/04811431186635032635.png 
http://www.shotpix.com/images/35762775975346174092.png 
http://www.shotpix.com/images/36101830287833801262.png 
http://www.shotpix.com/images/15970892021038939004.png 
http://www.shotpix.com/images/05150844579312723899.png